<?xml version="1.0" encoding="UTF-8" standalone="no"?>
<!-- Created with Inkscape (http://www.inkscape.org/) -->

<svg
   xmlns:dc="http://purl.org/dc/elements/1.1/"
   xmlns:cc="http://creativecommons.org/ns#"
   xmlns:rdf="http://www.w3.org/1999/02/22-rdf-syntax-ns#"
   xmlns:svg="http://www.w3.org/2000/svg"
   xmlns="http://www.w3.org/2000/svg"
   xmlns:sodipodi="http://sodipodi.sourceforge.net/DTD/sodipodi-0.dtd"
   xmlns:inkscape="http://www.inkscape.org/namespaces/inkscape"
   width="210mm"
   height="297mm"
   viewBox="0 0 744.09448819 1052.3622047"
   id="svg3960"
   version="1.1"
   inkscape:version="0.91 r13725"
   sodipodi:docname="tritechsc.github.io.svg">
  <defs
     id="defs3962" />
  <sodipodi:namedview
     id="base"
     pagecolor="#ffffff"
     bordercolor="#666666"
     borderopacity="1.0"
     inkscape:pageopacity="0.0"
     inkscape:pageshadow="2"
     inkscape:zoom="2.8"
     inkscape:cx="-3.7340773"
     inkscape:cy="648.57143"
     inkscape:document-units="px"
     inkscape:current-layer="layer1"
     showgrid="false"
     inkscape:window-width="1920"
     inkscape:window-height="990"
     inkscape:window-x="0"
     inkscape:window-y="27"
     inkscape:window-maximized="1" />
  <metadata
     id="metadata3965">
    <rdf:RDF>
      <cc:Work
         rdf:about="">
        <dc:format>image/svg+xml</dc:format>
        <dc:type
           rdf:resource="http://purl.org/dc/dcmitype/StillImage" />
        <dc:title></dc:title>
      </cc:Work>
    </rdf:RDF>
  </metadata>
  <g
     inkscape:label="Layer 1"
     inkscape:groupmode="layer"
     id="layer1">
    <g
       transform="matrix(1.3793534,0,0,1.3793534,883.2725,-20.945415)"
       style="font-style:normal;font-weight:normal;font-size:40px;line-height:125%;font-family:sans-serif;letter-spacing:0px;word-spacing:0px;fill:#ff0000;fill-opacity:1;stroke:none;stroke-width:1px;stroke-linecap:butt;stroke-linejoin:miter;stroke-opacity:1"
       id="flowRoot3978">
      <path
         d="m -726.23484,320.13257 6.36,0 q 6.64,0 6.64,4.64 0,1.56 -0.8,3.04 -0.76,1.52 -2.24,2.68 -3.28,2.56 -8.24,2.56 -4.8,0 -7.8,-1.96 -2.8,-1.88 -2.8,-4.6 0,-1.8 1.08,-2.88 1.12,-1.04 2.92,-1.32 -2.36,-1.44 -2.36,-3.56 0,-1.4 0.88,-2.32 0.88,-0.96 2.28,-1.36 -2.36,-2 -2.36,-5 0,-3.16 2.48,-5.12 2.4,-1.88 5.48,-1.88 3.12,0 5.2,1.16 0.24,-2.28 1.96,-3.68 1.68,-1.4 3.96,-1.4 l -0.24,4.52 q -3.44,0 -3.56,2.28 1.48,1.84 1.48,3.76 0,1.92 -0.68,3.24 -0.68,1.28 -1.84,2.16 -2.4,1.92 -5.84,1.92 -1.04,0 -1.96,-0.16 l 0,-3.52 q 0.76,0.36 2,0.36 1.84,0 2.72,-1.04 0.92,-1.04 0.92,-2.64 0,-1.64 -0.92,-2.64 -0.88,-1.04 -2.72,-1.04 -1.84,0 -2.8,1.04 -0.96,1 -0.96,2.2 0,1.16 0.2,1.8 l 0,2.52 0,2.52 q -1.64,0.48 -1.64,1.92 0,1.32 1.64,1.68 l 0,3.56 q -2.68,0.44 -2.68,2.72 0,1.36 1.56,2.16 1.6,0.84 3.76,0.84 2.16,0 3.36,-0.36 1.24,-0.36 2.08,-0.96 1.8,-1.2 1.8,-2.88 0,-0.72 -0.52,-1.2 -0.48,-0.44 -1.44,-0.44 l -6.36,0 0,-3.32 z"
         style="font-style:normal;font-variant:normal;font-weight:normal;font-stretch:normal;font-family:Karla;-inkscape-font-specification:Karla;fill:#ff0000"
         id="path3991"
         inkscape:connector-curvature="0" />
      <path
         d="m -708.31359,303.53257 4.72,0 0,19.48 -4.72,0 z"
         style="font-style:normal;font-variant:normal;font-weight:normal;font-stretch:normal;font-family:Karla;-inkscape-font-specification:Karla;fill:#ff0000"
         id="path3993"
         inkscape:connector-curvature="0"
         sodipodi:nodetypes="ccccc" />
      <path
         d="m -684.62859,322.53257 q -2.64,1.04 -4.16,1.04 -1.52,0 -2.68,-0.36 -1.12,-0.36 -2,-1.08 -1.84,-1.64 -1.84,-4.52 l 0,-10.88 -2.72,0 0,-3.16 2.72,0 0,-5.12 4.72,0 0,5.12 5.28,0 0,3.16 -5.28,0 0,10.72 q 0,2.4 2.28,2.4 1.16,0 3,-0.64 l 0.68,3.32 z"
         style="font-style:normal;font-variant:normal;font-weight:normal;font-stretch:normal;font-family:Karla;-inkscape-font-specification:Karla;fill:#ff0000"
         id="path3995"
         inkscape:connector-curvature="0" />
      <path
         d="m -675.08734,306.73257 q 2,-3.68 5.84,-3.68 3.84,0 5.64,2.36 1.84,2.36 1.84,6.24 l 0,11.36 -4.72,0 0,-11.36 q 0,-2.16 -1.04,-3.24 -1.04,-1.12 -2.92,-1.12 -1.88,0 -3.24,1.68 -1.32,1.68 -1.4,5.04 l 0,9 -4.72,0 0,-27.44 4.72,0 0,11.16 z"
         style="font-style:normal;font-variant:normal;font-weight:normal;font-stretch:normal;font-family:Karla;-inkscape-font-specification:Karla;fill:#ff0000"
         id="path3997"
         inkscape:connector-curvature="0" />
      <path
         d="m -641.96547,319.49257 q -1.84,3.88 -5.92,3.88 -5.16,0 -6.8,-4.04 -0.6,-1.4 -0.6,-3.4 l 0,-12.4 4.72,0 0,11.92 q 0,1.92 0.92,2.88 0.92,0.92 2.24,0.92 1.36,0 2.28,-0.36 0.92,-0.4 1.6,-1.16 1.48,-1.72 1.56,-4.6 l 0,-9.6 4.72,0 0,19.48 -4.72,0 0,-3.52 z"
         style="font-style:normal;font-variant:normal;font-weight:normal;font-stretch:normal;font-family:Karla;-inkscape-font-specification:Karla;fill:#ff0000"
         id="path3999"
         inkscape:connector-curvature="0" />
      <path
         d="m -623.48734,304.25257 q 1.56,-1.2 4.56,-1.2 3,0 5.44,2.8 2.48,2.8 2.48,7.36 0,4.56 -2.6,7.52 -2.52,2.84 -6.28,2.84 -1.8,0 -3.32,-0.96 -1.48,-0.96 -2.36,-2.96 l -1.16,3.36 -3.08,0 0,-27.44 4.72,0 0,16.52 0,2.56 q 0.08,2.04 1.48,3.36 1.32,1.28 3.2,1.28 1.92,0 3.28,-1.64 1.36,-1.68 1.36,-4.4 0,-2.72 -1.36,-4.32 -1.32,-1.64 -3.2,-1.64 -1.88,0 -3.16,1.04 l 0,-4.08 z"
         style="font-style:normal;font-variant:normal;font-weight:normal;font-stretch:normal;font-family:Karla;-inkscape-font-specification:Karla;fill:#ff0000"
         id="path4001"
         inkscape:connector-curvature="0" />
      <path
         d="m -604.75609,317.05257 q 1.44,0 2.4,0.92 0.96,0.92 0.96,2.28 0,1.36 -0.96,2.24 -0.96,0.88 -2.4,0.88 -1.44,0 -2.36,-0.88 -0.92,-0.88 -0.92,-2.24 0,-1.36 0.92,-2.28 0.92,-0.92 2.36,-0.92 z"
         style="font-style:normal;font-variant:normal;font-weight:normal;font-stretch:normal;font-family:Karla;-inkscape-font-specification:Karla;fill:#ff0000"
         id="path4003"
         inkscape:connector-curvature="0" />
      <path
         d="m -596.28234,303.53257 4.72,0 0,19.48 -4.72,0 z"
         style="font-style:normal;font-variant:normal;font-weight:normal;font-stretch:normal;font-family:Karla;-inkscape-font-specification:Karla;fill:#ff0000"
         id="path4005"
         inkscape:connector-curvature="0"
         sodipodi:nodetypes="ccccc" />
      <path
         d="m -576.75734,323.53257 q -3.6,-0.24 -5.88,-2.52 -2.76,-2.76 -2.76,-7.68 0,-5 2.76,-7.76 2.24,-2.24 5.88,-2.48 l 0,4.04 q -1.16,0 -2.52,1.56 -1.36,1.52 -1.36,4.6 0,3.08 1.12,4.52 1.12,1.4 2.76,1.6 l 0,4.12 z m 1.64,-4.16 q 1.48,-0.28 2.68,-1.64 1.2,-1.36 1.2,-4.44 0,-3.08 -1.12,-4.48 -1.08,-1.44 -2.76,-1.64 l 0,-4.08 q 1.52,0.08 3.04,0.64 1.56,0.56 2.8,1.84 2.76,2.8 2.76,7.76 0,4.88 -2.76,7.68 -2.24,2.32 -5.84,2.52 l 0,-4.16 z"
         style="font-style:normal;font-variant:normal;font-weight:normal;font-stretch:normal;font-family:Karla;-inkscape-font-specification:Karla;fill:#ff0000"
         id="path4007"
         inkscape:connector-curvature="0" />
    </g>
    <flowRoot
       xml:space="preserve"
       id="flowRoot3968"
       style="font-style:normal;font-weight:normal;font-size:55.17413712px;line-height:125%;font-family:sans-serif;letter-spacing:0px;word-spacing:0px;fill:#000000;fill-opacity:1;stroke:none;stroke-width:1px;stroke-linecap:butt;stroke-linejoin:miter;stroke-opacity:1"
       transform="translate(1.0714286,-2.8571429)"><flowRegion
         id="flowRegion3970"><rect
           id="rect3972"
           width="951.75385"
           height="577.35797"
           x="-144.05722"
           y="343.34988" /></flowRegion><flowPara
         id="flowPara3974"
         style="font-style:normal;font-variant:normal;font-weight:normal;font-stretch:normal;font-family:Karla;-inkscape-font-specification:Karla">tritechsc</flowPara><flowPara
         id="flowPara3976"
         style="font-style:normal;font-variant:normal;font-weight:normal;font-stretch:normal;font-family:Karla;-inkscape-font-specification:Karla" /></flowRoot>  </g>
</svg>
