<?xml version="1.0" encoding="UTF-8" standalone="no"?>
<!-- Created with Inkscape (http://www.inkscape.org/) -->

<svg
   xmlns:dc="http://purl.org/dc/elements/1.1/"
   xmlns:cc="http://creativecommons.org/ns#"
   xmlns:rdf="http://www.w3.org/1999/02/22-rdf-syntax-ns#"
   xmlns:svg="http://www.w3.org/2000/svg"
   xmlns="http://www.w3.org/2000/svg"
   xmlns:sodipodi="http://sodipodi.sourceforge.net/DTD/sodipodi-0.dtd"
   xmlns:inkscape="http://www.inkscape.org/namespaces/inkscape"
   width="744.09448819"
   height="1052.3622047"
   id="svg3134"
   version="1.1"
   inkscape:version="0.48.5 r10040"
   sodipodi:docname="tritech-cs.svg">
  <defs
     id="defs3136" />
  <sodipodi:namedview
     id="base"
     pagecolor="#ffffff"
     bordercolor="#666666"
     borderopacity="1.0"
     inkscape:pageopacity="0.0"
     inkscape:pageshadow="2"
     inkscape:zoom="1.4"
     inkscape:cx="87.640256"
     inkscape:cy="957.19817"
     inkscape:document-units="px"
     inkscape:current-layer="layer1"
     showgrid="false"
     inkscape:window-width="1440"
     inkscape:window-height="806"
     inkscape:window-x="0"
     inkscape:window-y="27"
     inkscape:window-maximized="1" />
  <metadata
     id="metadata3139">
    <rdf:RDF>
      <cc:Work
         rdf:about="">
        <dc:format>image/svg+xml</dc:format>
        <dc:type
           rdf:resource="http://purl.org/dc/dcmitype/StillImage" />
        <dc:title></dc:title>
      </cc:Work>
    </rdf:RDF>
  </metadata>
  <g
     inkscape:label="Layer 1"
     inkscape:groupmode="layer"
     id="layer1">
    <path
       inkscape:connector-curvature="0"
       d="m 176.06752,167.48751 14.18921,-33.2452 3.56242,0 -14.19141,33.2452 -3.56022,0 z"
       style="fill:#ffffff;fill-opacity:1;fill-rule:nonzero;stroke:none"
       id="path3049" />
    <path
       inkscape:connector-curvature="0"
       d="m 210.12297,110.41418 -35.80627,83.89601 -35.48542,-41.94801 71.29169,-41.948 z"
       style="fill:#ef3120;fill-opacity:1;fill-rule:nonzero;stroke:none"
       id="path3051" />
    <path
       inkscape:connector-curvature="0"
       d="m 179.46165,131.3589 27.58143,0 c 2.27846,0 0.78573,3.49632 -1.49046,3.49632 l -27.58153,0 c -2.33004,0 -0.83948,-3.49632 1.49056,-3.49632 m -2.97647,36.12181 c -0.9945,2.33014 -3.99132,2.27846 -2.9968,-0.0515 3.97761,-9.32263 11.68843,-27.38411 11.68843,-27.38411 0,0 -6.82628,0 -9.21028,0 -2.48941,0 -0.94956,-3.23019 1.43216,-3.23019 3.44352,0 12.17566,0 12.17566,0 0,0 -8.74794,20.49685 -13.08917,30.66578 m 15.67731,-30.77255 c 0,0 8.73231,0 12.17339,0 2.38408,0 1.16506,3.23153 -1.32444,3.23153 -2.38391,0 -9.21019,0 -9.21019,0 0,0 -7.70857,18.06129 -11.68635,27.38163 -0.9966,2.33014 -4.0359,2.38389 -3.04157,0.0538 4.33913,-10.16875 13.08916,-30.66693 13.08916,-30.66693 z"
       style="fill:#000000;fill-opacity:1;fill-rule:nonzero;stroke:none"
       id="path3053" />
    <path
       inkscape:connector-curvature="0"
       d="m 233.49322,134.48364 c -3.23019,0 -7.61657,-0.0528 -10.47633,-0.0528 -5.98452,0 -17.18584,7.25635 -20.7573,15.62477 -3.61863,8.47517 0.94946,15.51802 8.47176,15.51802 3.28415,0 7.69266,0 9.97112,0 2.27637,0 0.78347,3.49634 -1.4948,3.49634 -2.27846,0 -6.68509,0 -9.96924,0 -9.58742,0 -14.97258,-8.47405 -10.47613,-19.01436 4.50069,-10.54031 17.35637,-19.06811 25.72271,-19.06811 2.86204,0 7.2484,0.0538 10.47861,0.0538 2.27846,0 0.80806,3.44237 -1.4704,3.44237 m -28.55805,14.51253 c 0,0 6.37975,-12.34063 18.03231,-12.34063 3.81397,0 5.91279,0 9.61886,0 2.17738,0 0.8306,3.28415 -1.29529,3.28415 -2.43537,0 -7.02372,0 -10.46743,0 -5.34909,0 -9.78714,5.56014 -9.78714,5.56014 0,0 10.65823,0 14.4722,0 2.38389,0 1.1043,3.49634 -1.33334,3.49634 -5.8791,0 -19.24017,0 -19.24017,0 m 18.40276,1.96083 c 2.43783,0 0.73406,3.49502 -1.64985,3.49502 -3.81395,0 -14.47218,0 -14.47218,0 0,0 -0.30968,5.56147 5.0396,5.56147 3.44352,0 8.03167,0 10.4697,0 2.43765,0 0.98297,3.28282 -1.5109,3.28282 -3.70606,0 -5.80261,0 -9.61885,0 -11.65011,0 -7.49523,-12.33931 -7.49523,-12.33931 0,0 13.35861,0 19.23771,0 z"
       style="fill:#000000;fill-opacity:1;fill-rule:nonzero;stroke:none"
       id="path3055" />
    <path
       inkscape:connector-curvature="0"
       d="m 263.85614,134.64303 c -2.38389,0 -5.4549,0 -9.21491,0 -5.98453,0 -15.95585,4.87227 -20.52392,15.57206 -3.64778,8.05071 1.53985,15.62468 7.27756,15.4653 3.33561,0 6.51206,0 9.10928,0 2.32996,0 0.83741,3.49614 -1.49291,3.49614 -2.59495,0 -5.7712,0 -9.1091,0 -8.01388,-0.21199 -13.52916,-8.63322 -9.27985,-18.96144 5.42556,-12.7123 17.83244,-19.06706 25.51186,-19.06706 3.75982,0 6.83291,0 9.21698,0 2.32768,0 0.83704,3.495 -1.49499,3.495 m -12.2971,28.81267 c -2.43555,0 -4.07859,0 -7.73315,0 -7.04398,0 -10.62454,-5.87891 -7.52893,-13.13621 3.18761,-7.46731 11.91738,-13.76957 19.01302,-13.76957 2.9139,0 5.56053,0 7.57398,0 2.33014,0 0.8622,3.4424 -1.46792,3.4424 -2.01366,0 -4.66255,0 -7.57398,0 -4.92718,0 -11.65257,4.71515 -14.0501,10.32717 -2.21314,5.19197 0.44238,9.64118 5.52683,9.64118 3.65439,0 5.29533,0 7.73318,0 2.33013,0 0.8374,3.49502 -1.49293,3.49502 z"
       style="fill:#000000;fill-opacity:1;fill-rule:nonzero;stroke:none"
       id="path3057" />
    <path
       inkscape:connector-curvature="0"
       d="m 255.42242,167.48071 14.76389,-34.58518 c 0.97199,-2.27846 4.46681,-2.27846 3.49728,0 l -14.76371,34.58518 c -0.9945,2.33014 -4.48952,2.33014 -3.49746,0 m 27.86223,0 14.76124,-34.58518 c 0.97238,-2.27846 4.46738,-2.27846 3.49539,0 l -14.76179,34.58518 c -0.99661,2.33014 -4.48936,2.33014 -3.49484,0 m -14.09967,-18.59016 c 0,0 3.95764,-9.26859 6.57964,-15.4124 1.35569,-3.17757 4.87341,-3.23151 3.44996,0.10534 -1.44767,3.39063 -5.08653,11.91634 -5.08653,11.91634 l 12.92305,0 c 0,0 3.84312,-9.00376 5.08693,-11.91634 1.33314,-3.12352 4.90464,-3.17739 3.54877,0 -1.78669,4.18421 -6.53441,15.30706 -6.53441,15.30706 l -19.96741,0 m 19.11656,2.11812 c 0,0 -4.02255,9.42788 -6.66898,15.62591 -1.33354,3.12459 -4.9567,3.17627 -3.55578,-0.10581 1.47019,-3.44333 5.17626,-12.13052 5.17626,-12.13052 l -12.92306,0 c 0,0 -3.95763,9.27076 -5.22132,12.23633 -1.31329,3.07063 -4.83081,3.12459 -3.49521,0 1.80695,-4.23835 6.66711,-15.62591 6.66711,-15.62591 l 20.02098,0 z"
       style="fill:#000000;fill-opacity:1;fill-rule:nonzero;stroke:none"
       id="path3059" />
    <path
       inkscape:connector-curvature="0"
       d="m 91.947123,136.52077 c -2.38398,0 -3.92166,3.23029 -1.43225,3.23029 2.38398,0 9.20923,0 9.20923,0 0,0 -7.88488,18.47442 -11.86475,27.79702 -0.99451,2.33014 2.00229,2.38391 2.99682,0.0538 4.3413,-10.16987 13.266417,-31.08108 13.266417,-31.08108 0,0 -8.734307,0 -12.175467,0 z"
       style="fill:#000000;fill-opacity:1;fill-rule:nonzero;stroke:none"
       id="path3061" />
    <path
       inkscape:connector-curvature="0"
       d="m 126.52104,153.86958 c -4.50081,0 -9.42692,0 -9.42692,0 0,0 -4.04622,9.48087 -5.74102,13.45174 -1.06293,2.48953 2.25821,2.27827 3.27506,-0.10542 1.6735,-3.91959 4.29655,-10.06351 4.29655,-10.06351 0,0 2.75217,0 5.82516,0 2.01127,0 2.31886,1.64322 1.68579,3.12477 -1.60496,3.76115 -1.99101,4.66254 -2.94059,6.88592 -1.03928,2.43651 2.1999,2.54213 3.28406,0 1.62976,-3.81263 1.5602,-3.65344 3.00798,-7.04302 1.08423,-2.54327 0.17745,-6.25048 -3.26607,-6.25048 z"
       style="fill:#000000;fill-opacity:1;fill-rule:nonzero;stroke:none"
       id="path3063" />
    <path
       inkscape:connector-curvature="0"
       d="m 119.13124,136.4356 c -0.0808,-0.008 -0.15722,-0.0204 -0.24694,-0.0204 -3.44238,0 -12.17452,0 -12.17452,0 0,0 -8.925207,20.91016 -13.265487,31.07889 -0.99555,2.33221 2.04724,2.27846 3.04053,-0.0528 3.978837,-9.3213 11.864747,-27.79571 11.864747,-27.79571 0,0 6.82516,0 9.20811,0 0.0739,0 0.1414,-0.0124 0.21097,-0.0168 -4.21336,9.87353 -9.48645,22.22987 -11.75138,27.53429 -1.03929,2.43651 2.09333,2.54213 3.13366,0.10657 3.732,-8.7434 10.79074,-25.35248 13.16565,-30.88129 l -3.1651,0 c -0.007,0.0181 -0.0135,0.0325 -0.0202,0.0472 z"
       style="fill:#000000;fill-opacity:1;fill-rule:nonzero;stroke:none"
       id="path3065" />
    <path
       inkscape:connector-curvature="0"
       d="m 135.01533,152.33304 c 0,0 4.48272,-2.80715 6.85762,-8.36748 3.02822,-7.09791 -0.28054,-12.87035 -7.37854,-12.87035 l -13.06684,-0.0427 c -0.002,0.005 -0.002,0.009 -0.005,0.0123 l -27.413047,0 c -2.33004,0 -3.82172,3.49634 -1.49273,3.49634 l 27.413147,0 c -0.002,0.007 -0.007,0.0158 -0.009,0.0246 l 3.17644,0 c 0.009,-0.0179 0.0203,-0.0437 0.0224,-0.0471 l 9.83436,-0.0718 c 6.61314,-0.009 7.69285,5.42121 5.99805,9.39218 -2.41986,5.6669 -8.19569,8.52781 -8.19569,8.52781 0,0 3.08436,2.70047 1.5691,6.24962 -1.7846,4.18421 -2.10109,4.9249 -3.59382,8.42104 -1.10884,2.594 2.10119,2.64775 3.2302,0 1.74201,-4.07763 2.10327,-4.92603 3.7533,-8.79166 1.37829,-3.23116 -0.70028,-5.93275 -0.70028,-5.93275 z"
       style="fill:#000000;fill-opacity:1;fill-rule:nonzero;stroke:none"
       id="path3067" />
    <path
       inkscape:connector-curvature="0"
       d="m 136.75715,143.91171 c 1.7106,-4.1315 -0.33002,-7.41564 -4.46255,-7.41564 -4.13046,0 -7.84106,0.0561 -7.84106,0.0561 -1.35578,3.17739 -6.43124,15.14549 -6.43124,15.14549 0,0 4.3415,0 7.62545,0 4.07879,0 9.33153,-3.4951 11.1094,-7.78597 m -3.07309,0 c -1.00796,2.48951 -4.36383,4.76682 -6.32354,4.76682 -1.90574,0 -5.05294,0.0113 -5.05294,0.0113 l 3.96198,-9.28447 c 0,0 2.2919,0.005 4.78133,0.005 2.4895,0 3.64332,2.01241 2.63317,4.50184 z"
       style="fill:#000000;fill-opacity:1;fill-rule:nonzero;stroke:none"
       id="path3069" />
    <path
       inkscape:connector-curvature="0"
       d="m 155.69173,133.30847 -14.60442,34.21482 c -0.972,2.27732 2.52312,2.27732 3.4951,0 l 14.60442,-34.21482 c 0.97208,-2.27837 -2.52302,-2.27837 -3.4951,0 z"
       style="fill:#000000;fill-opacity:1;fill-rule:nonzero;stroke:none"
       id="path3071" />
    <path
       inkscape:connector-curvature="0"
       d="m 150.18306,133.30847 -14.60442,34.21482 c -0.96981,2.27732 2.52304,2.27732 3.49738,0 l 14.60216,-34.21482 c 0.97198,-2.27837 -2.52312,-2.27837 -3.49512,0 z"
       style="fill:#000000;fill-opacity:1;fill-rule:nonzero;stroke:none"
       id="path3073" />
    <path
       inkscape:connector-curvature="0"
       d="m 190.97954,176.28675 c 0.0629,-0.14347 0.13477,-0.28619 0.23347,-0.4308 0.60838,-0.88891 1.28849,-1.27278 2.26048,-1.27278 l 3.78472,0 -0.79463,1.86107 -3.01479,0 -0.12124,0 -0.14811,0.0133 c -0.1909,0.0235 -0.34119,0.0943 -0.47597,0.24019 -0.0493,0.0606 -0.0874,0.11907 -0.11224,0.17965 l -0.24466,0.57676 c -0.0156,0.0348 -0.0381,0.0831 -0.0404,0.11905 -0.0606,0.25252 0.0135,0.33674 0.30986,0.37272 0.0314,0.0112 0.0786,0.0112 0.11451,0.0112 l 1.34453,0 c 0.94956,0 1.33561,0.44673 1.13147,1.34697 -0.027,0.11888 -0.0651,0.24002 -0.1168,0.3589 l -0.74305,1.74221 c -0.43545,1.0212 -1.26605,1.66989 -2.31886,1.80239 -0.11434,0.0112 -0.21543,0.0223 -0.32321,0.0223 l -3.67465,0 0.79463,-1.8607 3.01469,0 0.16846,0 0.0605,0 c 0.0404,-0.0114 0.0808,-0.0248 0.12361,-0.0359 0.28053,-0.0954 0.4152,-0.21542 0.52292,-0.46905 l 0.26717,-0.62429 c 0.10326,-0.24 0.045,-0.38501 -0.21777,-0.41965 l -0.2154,0 -1.33344,0 c -0.61284,0 -0.99226,-0.26481 -1.12467,-0.76869 -0.0628,-0.27731 -0.0337,-0.6006 0.10553,-0.92506 l 0.78338,-1.83968 z"
       style="fill:#000000;fill-opacity:1;fill-rule:nonzero;stroke:none"
       id="path3075" />
    <path
       inkscape:connector-curvature="0"
       d="m 199.46929,178.0176 3.3627,-3.43443 2.12797,0 -4.15715,4.25139 0.53645,4.39527 -2.13706,0 -0.45353,-3.47021 c -0.0875,-0.72062 -0.0471,-0.90025 0.34108,-1.35587 l 0.37954,-0.38615 m -2.59723,5.21223 3.69036,-8.64666 -1.86089,0 -3.69027,8.64666 1.8608,0 z"
       style="fill:#000000;fill-opacity:1;fill-rule:nonzero;stroke:none"
       id="path3077" />
    <path
       inkscape:connector-curvature="0"
       d="m 202.25276,183.22983 3.69054,-8.64666 1.86318,0 -3.69056,8.64666 -1.86316,0 z"
       style="fill:#000000;fill-opacity:1;fill-rule:nonzero;stroke:none"
       id="path3079" />
    <path
       inkscape:connector-curvature="0"
       d="m 206.54032,181.11775 2.78783,-6.53458 1.86109,0 -2.56353,6.00686 -0.15049,0.35927 -0.0112,0.0246 c -0.092,0.24039 0.0157,0.38386 0.29852,0.39522 l 0.33674,0 2.95422,0 -0.80599,1.8607 -3.44788,0 c -0.0966,0 -0.20424,0 -0.30759,-0.0112 -1.26141,-0.10772 -1.54214,-0.71834 -0.95175,-2.10092 z"
       style="fill:#000000;fill-opacity:1;fill-rule:nonzero;stroke:none"
       id="path3081" />
    <path
       inkscape:connector-curvature="0"
       d="m 212.94469,181.11775 2.78802,-6.53458 1.86089,0 -2.5637,6.00686 -0.15239,0.35927 -0.009,0.0246 c -0.0922,0.24039 0.0157,0.38386 0.29852,0.39522 l 0.33448,0 2.95628,0 -0.80579,1.8607 -3.44807,0 c -0.0963,0 -0.20425,0 -0.3074,-0.0112 -1.26388,-0.10772 -1.54231,-0.71834 -0.95175,-2.10092 z"
       style="fill:#000000;fill-opacity:1;fill-rule:nonzero;stroke:none"
       id="path3083" />
    <path
       inkscape:connector-curvature="0"
       d="m 221.7195,176.28675 c 0.0629,-0.14347 0.13687,-0.28619 0.2334,-0.4308 0.6061,-0.88891 1.28849,-1.27278 2.26049,-1.27278 l 3.78461,0 -0.79463,1.86107 -3.01479,0 -0.11888,0 -0.15027,0.0133 c -0.19101,0.0235 -0.3413,0.0943 -0.4738,0.24019 -0.0517,0.0606 -0.0897,0.11907 -0.11452,0.17965 l -0.24682,0.57676 c -0.0135,0.0348 -0.036,0.0831 -0.0383,0.11905 -0.0583,0.25252 0.0114,0.33674 0.30986,0.37272 0.0291,0.0112 0.0786,0.0112 0.11434,0.0112 l 1.3447,0 c 0.94947,0 1.33562,0.44673 1.13364,1.34697 -0.0292,0.11888 -0.0674,0.24002 -0.11887,0.3589 l -0.74315,1.74221 c -0.43554,1.0212 -1.26614,1.66989 -2.31895,1.80239 -0.11208,0.0112 -0.21523,0.0223 -0.32085,0.0223 l -3.67711,0 0.79482,-1.8607 3.01479,0 0.16828,0 0.0585,0 c 0.0424,-0.0114 0.0829,-0.0248 0.12551,-0.0359 0.2807,-0.0954 0.41757,-0.21542 0.52299,-0.46905 l 0.26728,-0.62429 c 0.10317,-0.24 0.0449,-0.38501 -0.2156,-0.41965 l -0.21767,0 -1.33335,0 c -0.61291,0 -0.99226,-0.26481 -1.12476,-0.76869 -0.0628,-0.27731 -0.0337,-0.6006 0.10564,-0.92506 l 0.78344,-1.83968 z"
       style="fill:#000000;fill-opacity:1;fill-rule:nonzero;stroke:none"
       id="path3085" />
    <path
       inkscape:connector-curvature="0"
       d="m 230.44947,181.30837 2.02918,-4.75661 c 0.6396,-1.49953 1.33105,-1.96859 2.87092,-1.96859 l 3.6277,0 -0.79463,1.86107 -3.10015,0 -0.16828,0 -0.0966,0 c -0.24928,0.0246 -0.45126,0.15598 -0.59492,0.38369 l -0.092,0.21655 -1.52434,3.56807 c -0.24663,0.57696 -0.19742,0.72063 0.23132,0.75658 0.0471,0 0.10771,0 0.15502,0 l 3.08653,0 -0.79463,1.8607 -3.90387,0 c -0.19061,0 -0.39032,-0.0337 -0.59246,-0.13004 -0.60838,-0.2896 -0.73635,-0.86637 -0.33884,-1.79142 z"
       style="fill:#000000;fill-opacity:1;fill-rule:nonzero;stroke:none"
       id="path3087" />
    <path
       inkscape:connector-curvature="0"
       d="m 237.39899,181.42971 2.12153,-4.97221 c 0.0583,-0.13345 0.1257,-0.26481 0.20197,-0.38388 0.57469,-0.98544 1.39165,-1.49045 2.39961,-1.49045 l 3.84539,0 -0.79463,1.86107 -3.0396,0 -0.27597,0 -0.0382,0 c -0.0517,0.0133 -0.0874,0.0133 -0.13457,0.0367 -0.22223,0.0708 -0.41984,0.2527 -0.53209,0.51751 l -0.40848,0.95855 3.78234,0 -0.79463,1.86316 -3.78234,0 -0.41303,0.96065 c -0.17282,0.40867 -0.10335,0.55234 0.23113,0.58829 l 0.27617,0 3.02594,0 -0.79255,1.8607 -3.58019,0 c -1.39409,0 -1.78914,-0.64755 -1.29775,-1.80013 z"
       style="fill:#000000;fill-opacity:1;fill-rule:nonzero;stroke:none"
       id="path3089" />
    <path
       inkscape:connector-curvature="0"
       d="m 243.71818,183.22983 2.95629,-6.92831 c 0.57469,-1.34679 1.90367,-2.12797 2.87774,-1.70623 0.4155,0.17981 0.59722,0.59946 0.4738,1.30797 l -0.82606,5.01008 2.70039,-6.33017 1.76662,0 -3.05511,7.15734 c -0.38388,0.90254 -1.33334,1.57488 -2.19991,1.61066 -0.81033,0.0134 -1.18077,-0.44445 -1.02138,-1.46585 l 0.79463,-4.95991 -2.68921,6.30442 -1.7778,0 z"
       style="fill:#000000;fill-opacity:1;fill-rule:nonzero;stroke:none"
       id="path3091" />
    <path
       inkscape:connector-curvature="0"
       d="m 253.96566,176.44424 0.79463,-1.86107 5.57377,0 -0.79254,1.86107 -1.86318,0 -2.89572,6.78559 -1.86315,0 2.89818,-6.78559 -1.85199,0 z"
       style="fill:#000000;fill-opacity:1;fill-rule:nonzero;stroke:none"
       id="path3093" />
    <path
       inkscape:connector-curvature="0"
       d="m 258.50459,181.42971 2.12343,-4.97221 c 0.056,-0.13345 0.12341,-0.26481 0.1999,-0.38388 0.57694,-0.98544 1.39165,-1.49045 2.40188,-1.49045 l 3.8429,0 -0.79462,1.86107 -3.03958,0 -0.27599,0 -0.036,0 c -0.0517,0.0133 -0.0875,0.0133 -0.13457,0.0367 -0.22224,0.0708 -0.41966,0.2527 -0.53209,0.51751 l -0.41284,0.95855 3.7869,0 -0.79463,1.86316 -3.78482,0 -0.41055,0.96065 c -0.17282,0.40867 -0.10335,0.55234 0.22864,0.58829 l 0.27617,0 3.02843,0 -0.79463,1.8607 -3.57832,0 c -1.39617,0 -1.78895,-0.64755 -1.29964,-1.80013 z"
       style="fill:#000000;fill-opacity:1;fill-rule:nonzero;stroke:none"
       id="path3095" />
    <path
       inkscape:connector-curvature="0"
       d="m 268.51375,174.58317 4.3506,0 c 1.0303,0 1.41399,0.48041 1.15826,1.41739 -0.0271,0.11905 -0.0719,0.22789 -0.11906,0.33579 l -0.73842,1.72952 c -0.0517,0.12019 -0.10108,0.24021 -0.17738,0.36021 -0.4893,0.78139 -1.19647,1.26161 -1.97766,1.36932 -0.11225,0.0136 -0.22677,0.0248 -0.33447,0.0248 l -0.2828,-0.0112 0.65325,3.4208 -2.19764,0 -0.58376,-3.21771 c -0.0358,-0.16714 0,-0.39617 0.14157,-0.67234 0.36816,-0.72062 0.94719,-1.09315 1.58472,-1.09315 l 0.75413,0 c 0.35018,0 0.55688,-0.14366 0.70509,-0.49403 l 0.33657,-0.79122 c 0.13021,-0.30079 0.0628,-0.45676 -0.24021,-0.50388 -0.0314,-0.0133 -0.0786,-0.0133 -0.1168,-0.0133 l -1.84953,0 -2.89346,6.78559 -1.86334,0 3.69034,-8.64666 z"
       style="fill:#000000;fill-opacity:1;fill-rule:nonzero;stroke:none"
       id="path3097" />
    <flowRoot
       xml:space="preserve"
       id="flowRoot3197"
       style="font-size:40px;font-style:normal;font-weight:normal;line-height:125%;letter-spacing:0px;word-spacing:0px;fill:#0000ff;fill-opacity:1;stroke:#fffcfc;font-family:Sans;stroke-opacity:1;stroke-width:0.5;stroke-miterlimit:4;stroke-dasharray:none"
       transform="translate(20.000001,-85.714286)"><flowRegion
         id="flowRegion3199"><rect
           id="rect3201"
           width="472.85712"
           height="74.285721"
           x="101.42857"
           y="197.36218"
           style="fill:#0000ff;stroke:#fffcfc;stroke-opacity:1;stroke-width:0.5;stroke-miterlimit:4;stroke-dasharray:none" /></flowRegion><flowPara
         id="flowPara3203"
         style="font-size:16px;font-style:normal;font-variant:normal;font-weight:normal;font-stretch:normal;fill:#0000ff;font-family:Karla;-inkscape-font-specification:Karla;stroke:#fffcfc;stroke-opacity:1;stroke-width:0.5;stroke-miterlimit:4;stroke-dasharray:none">Computer Science</flowPara></flowRoot>    <flowRoot
       xml:space="preserve"
       id="flowRoot3205"
       style="fill:black;stroke:none;stroke-opacity:1;stroke-width:1px;stroke-linejoin:miter;stroke-linecap:butt;fill-opacity:1;font-family:Sans;font-style:normal;font-weight:normal;font-size:40px;line-height:125%;letter-spacing:0px;word-spacing:0px"><flowRegion
         id="flowRegion3207"><rect
           id="rect3209"
           width="382.85715"
           height="374.28571"
           x="420"
           y="165.21933" /></flowRegion><flowPara
         id="flowPara3211"></flowPara></flowRoot>    <flowRoot
       xml:space="preserve"
       id="flowRoot3213"
       style="font-size:40px;font-style:normal;font-weight:normal;line-height:125%;letter-spacing:0px;word-spacing:0px;fill:#0000ff;fill-opacity:1;stroke:none;font-family:Sans"
       transform="matrix(0.75319769,0,0,0.92452602,64.509926,-72.799475)"><flowRegion
         id="flowRegion3215"><rect
           id="rect3217"
           width="400"
           height="52.142857"
           x="32.142857"
           y="263.07648"
           style="fill:#0000ff;stroke:none" /></flowRegion><flowPara
         id="flowPara3219"
         style="font-size:14px;font-style:normal;font-variant:normal;font-weight:normal;font-stretch:normal;fill:#0000ff;stroke:none;font-family:Karla;-inkscape-font-specification:Karla">1111111111110001</flowPara></flowRoot>  </g>
</svg>
